<svg xmlns="http://www.w3.org/2000/svg" viewBox="0 0 100 100" fill="none">
  <!-- Bulle de dialogue -->
  <path d="M50 8 C26 8 8 24 8 44 C8 58 16 70 30 76 L22 92 L44 80 C46 80 48 81 50 81 C74 81 92 65 92 45 C92 25 74 8 50 8Z" fill="#3d3532"/>
  <!-- Cœur blanc -->
  <path d="M50 65 C50 65 28 53 28 38 C28 29 34 23 42 23 C46 23 49 25 50 28 C51 25 54 23 58 23 C66 23 72 29 72 38 C72 53 50 65 50 65Z" fill="white"/>
  <!-- Rayures diagonales magenta -->
  <clipPath id="h">
    <path d="M50 65 C50 65 28 53 28 38 C28 29 34 23 42 23 C46 23 49 25 50 28 C51 25 54 23 58 23 C66 23 72 29 72 38 C72 53 50 65 50 65Z"/>
  </clipPath>
  <g clip-path="url(#h)">
    <rect x="22" y="18" width="56" height="52" fill="white"/>
    <line x1="18" y1="18" x2="58" y2="75" stroke="#c5256e" stroke-width="8"/>
    <line x1="34" y1="18" x2="74" y2="75" stroke="#c5256e" stroke-width="8"/>
    <line x1="50" y1="18" x2="90" y2="75" stroke="#c5256e" stroke-width="8"/>
    <line x1="2"  y1="18" x2="42" y2="75" stroke="#c5256e" stroke-width="8"/>
  </g>
</svg>
